<svg width="120" height="120" viewBox="0 0 120 120" fill="none" xmlns="http://www.w3.org/2000/svg">
<path d="M120 60C120 93.1371 93.1371 120 60 120C26.8629 120 0 93.1371 0 60C0 26.8629 26.8629 0 60 0C93.1371 0 120 26.8629 120 60Z" fill="#D9D9D9"/>
<path d="M22.1538 106.561C25.4007 90.5815 41.1101 78.4615 60 78.4615C78.8899 78.4615 94.5993 90.5815 97.8462 106.561C87.5217 114.963 74.3491 120 60 120C45.6509 120 32.4783 114.963 22.1538 106.561Z" fill="white"/>
<path d="M78.4615 51.9231C78.4615 62.3315 70.0238 70.7692 59.6154 70.7692C49.2069 70.7692 40.7692 62.3315 40.7692 51.9231C40.7692 41.5146 49.2069 33.0769 59.6154 33.0769C70.0238 33.0769 78.4615 41.5146 78.4615 51.9231Z" fill="white"/>
<circle cx="98.6006" cy="106.6" r="12.75" fill="white" stroke="#DDDDDD" stroke-width="0.5"/>
<path d="M105.978 99.8949H103.209C103.077 99.8949 102.951 99.8395 102.862 99.7423L101.423 98.1696C101.334 98.0724 101.209 98.0171 101.077 98.0171H95.8571C95.7254 98.0171 95.5997 98.0724 95.5108 98.1696L94.0718 99.7423C93.9828 99.8395 93.8572 99.8949 93.7254 99.8949H90.9559C90.4579 99.8949 89.9803 100.093 89.6281 100.445C89.276 100.797 89.0781 101.275 89.0781 101.773V112.1C89.0781 112.598 89.276 113.076 89.6281 113.428C89.9803 113.78 90.4579 113.978 90.9559 113.978H105.978C106.476 113.978 106.954 113.78 107.306 113.428C107.658 113.076 107.856 112.598 107.856 112.1V101.773C107.856 101.275 107.658 100.797 107.306 100.445C106.954 100.093 106.476 99.8949 105.978 99.8949ZM105.978 111.631C105.978 111.89 105.768 112.1 105.509 112.1H91.4253C91.1661 112.1 90.9559 111.89 90.9559 111.631V102.242C90.9559 101.983 91.1661 101.773 91.4253 101.773H94.5516C94.6834 101.773 94.8091 101.717 94.898 101.62L96.337 100.047C96.4259 99.9502 96.5516 99.8949 96.6833 99.8949H100.251C100.382 99.8949 100.508 99.9502 100.597 100.047L102.036 101.62C102.125 101.717 102.251 101.773 102.382 101.773H105.509C105.768 101.773 105.978 101.983 105.978 102.242V111.631Z" fill="black"/>
<path d="M98.467 102.712C97.471 102.712 96.5157 103.107 95.8114 103.812C95.1071 104.516 94.7115 105.471 94.7115 106.467C94.7115 107.463 95.1071 108.418 95.8114 109.123C96.5157 109.827 97.471 110.223 98.467 110.223C99.463 110.223 100.418 109.827 101.123 109.123C101.827 108.418 102.223 107.463 102.223 106.467C102.223 105.471 101.827 104.516 101.123 103.812C100.418 103.107 99.463 102.712 98.467 102.712ZM98.467 108.72C97.8694 108.72 97.2962 108.483 96.8737 108.06C96.4511 107.638 96.2137 107.065 96.2137 106.467C96.2137 105.869 96.4511 105.296 96.8737 104.874C97.2962 104.451 97.8694 104.214 98.467 104.214C99.0646 104.214 99.6378 104.451 100.06 104.874C100.483 105.296 100.72 105.869 100.72 106.467C100.72 107.065 100.483 107.638 100.06 108.06C99.6378 108.483 99.0646 108.72 98.467 108.72Z" fill="black"/>
</svg>
